<?xml version="1.0" encoding="iso-8859-1"?>
<!-- Uploaded to: SVG Repo, www.svgrepo.com, Generator: SVG Repo Mixer Tools -->
<svg height="800px" width="800px" version="1.1" id="Capa_1" xmlns="http://www.w3.org/2000/svg" xmlns:xlink="http://www.w3.org/1999/xlink" 
	 viewBox="0 0 469.97 469.97" xml:space="preserve">
<g>
	<path style="fill:#FF382E;" d="M154.619,222.858c3.486,0.645,6.128,3.696,6.128,7.369v31.739c0,7.261,5.907,13.167,13.167,13.167
		h159.979c7.261,0,13.167-5.906,13.167-13.167v-31.783c0-6.408-4.603-11.754-10.674-12.923
		c-21.266,19.494-50.393,31.538-82.483,31.538c-34.361,0-66.467-14.05-88.501-37.412
		C160.466,213.637,156.567,217.77,154.619,222.858z"/>
	<path style="fill:#87DE66;" d="M181.413,312.633v6.167c0,39.972,32.519,72.49,72.49,72.49c39.971,0,72.489-32.519,72.489-72.49
		v-28.667h-39.592c6.698,7.677,10.77,17.702,10.77,28.667c0,24.078-19.589,43.668-43.667,43.668s-43.667-19.59-43.667-43.668
		c0-10.965,4.071-20.99,10.77-28.667h-47.09v15C178.056,305.134,181.413,308.491,181.413,312.633z"/>
	<path style="fill:#FFC743;" d="M225.236,318.8c0,13.213,8.987,24.36,21.167,27.666V318.8c0-4.143,3.358-7.5,7.5-7.5
		c4.142,0,7.5,3.357,7.5,7.5v27.666c12.18-3.306,21.167-14.453,21.167-27.666c0-15.807-12.86-28.667-28.667-28.667
		S225.236,302.993,225.236,318.8z"/>
	<path style="fill:#FFC743;" d="M188.647,124.384c0,12.958,10.542,23.501,23.501,23.501c12.958,0,23.5-10.543,23.5-23.501
		s-10.542-23.501-23.5-23.501C199.19,100.883,188.647,111.426,188.647,124.384z M204.648,119.217c0-4.143,3.358-7.5,7.5-7.5
		s7.5,3.357,7.5,7.5v10.334c0,4.143-3.358,7.5-7.5,7.5s-7.5-3.357-7.5-7.5V119.217z"/>
	<path style="fill:#FFC743;" d="M299.792,147.885c12.958,0,23.5-10.543,23.5-23.501s-10.542-23.501-23.5-23.501
		c-12.958,0-23.501,10.543-23.501,23.501S286.833,147.885,299.792,147.885z M292.292,119.217c0-4.143,3.358-7.5,7.5-7.5
		s7.5,3.357,7.5,7.5v10.334c0,4.143-3.358,7.5-7.5,7.5s-7.5-3.357-7.5-7.5V119.217z"/>
	<path style="fill:#FFFFFF;" d="M341.392,289.111V318.8c0,48.242-39.248,87.49-87.489,87.49c-48.242,0-87.49-39.248-87.49-87.49
		v-6.167c0-4.143,3.358-7.5,7.5-7.5c0.002,0,0.002-15,0.002-15c-15.533,0-28.169-12.636-28.169-28.167v-31.739
		c0-4.143,3.358-7.5,7.5-7.5c0.469,0,0.927,0.049,1.372,0.131c1.948-5.088,5.847-9.221,10.783-11.472
		c-7.609-8.067-14.024-17.237-18.907-27.332l0.059-0.029c-0.496-1.104-0.807-2.493-0.807-4.242l0-88.598
		c0-14.896-12.119-27.016-27.015-27.016c-14.896,0-27.016,12.119-27.016,27.016v4.005h27.016c4.142,0,7.5,3.357,7.5,7.5
		s-3.358,7.5-7.5,7.5H91.716v131.558c0,29.746,23.193,54.915,52.801,57.301c4.128,0.332,7.206,3.949,6.873,8.078
		c-0.316,3.924-3.599,6.897-7.467,6.897c-0.202,0-0.405-0.008-0.611-0.024c-4.201-0.338-8.327-1.053-12.349-2.095
		c-0.93,6.172-1.411,12.436-1.411,18.714V432.47c0,12.406,10.093,22.5,22.5,22.5h203.703c12.407,0,22.5-10.094,22.5-22.5V330.618
		c0-22.083-5.896-43.673-16.87-62.543C359.127,278.241,351.363,286.353,341.392,289.111z M193.905,439.982l-41.764,0.012
		c-0.992,0-1.971-0.196-2.883-0.575c-1.985-0.798-3.617-2.436-4.334-4.628c-1.289-3.937,0.858-8.173,4.795-9.461
		c0.965-0.315,1.988-0.422,2.987-0.336l41.195-0.012c4.144,0,7.501,3.356,7.502,7.498S198.047,439.981,193.905,439.982z
		 M362.727,435.204c-1.098,2.806-3.826,4.765-6.983,4.766l-41.839,0.012c-4.144,0-7.501-3.356-7.502-7.498s3.356-7.501,7.498-7.502
		l40.727-0.012c1.517-0.238,3.119-0.012,4.587,0.746C362.694,427.51,364.176,431.648,362.727,435.204z"/>
	<path style="fill:#FFFFFF;" d="M145.108,58.503c9.532,7.708,15.639,19.496,15.639,32.682c0,0,0,75.344,0,87.85
		c16.878,33.323,53.246,54.764,93.156,54.764c56.679,0,102.792-42.594,102.792-94.949c0-10.834-1.966-21.47-5.842-31.609
		c-0.74-1.936-0.646-4.09,0.258-5.954c19.83-40.85,10.877-80.3,1.922-85.317c-7.493-4.201-35.842,4.156-59.677,30.41
		c-1.942,2.14-4.939,2.969-7.707,2.144c-10.235-3.067-20.916-4.623-31.747-4.623c-10.83,0-21.511,1.556-31.747,4.623
		c-2.767,0.825-5.765-0.005-7.706-2.144c-23.835-26.255-52.184-34.614-59.676-30.41C149.411,18.973,143.344,35.249,145.108,58.503z
		 M299.792,85.883c21.229,0,38.5,17.271,38.5,38.501s-17.271,38.501-38.5,38.501c-21.229,0-38.501-17.271-38.501-38.501
		S278.562,85.883,299.792,85.883z M212.148,85.883c21.229,0,38.5,17.271,38.5,38.501s-17.271,38.501-38.5,38.501
		c-21.229,0-38.501-17.271-38.501-38.501S190.919,85.883,212.148,85.883z"/>
	<path style="fill:#1C1918;" d="M212.148,162.885c21.229,0,38.5-17.271,38.5-38.501s-17.271-38.501-38.5-38.501
		c-21.229,0-38.501,17.271-38.501,38.501S190.919,162.885,212.148,162.885z M235.649,124.384c0,12.958-10.542,23.501-23.5,23.501
		c-12.958,0-23.501-10.543-23.501-23.501s10.542-23.501,23.501-23.501C225.106,100.883,235.649,111.426,235.649,124.384z"/>
	<path style="fill:#1C1918;" d="M212.148,137.051c4.142,0,7.5-3.357,7.5-7.5v-10.334c0-4.143-3.358-7.5-7.5-7.5s-7.5,3.357-7.5,7.5
		v10.334C204.648,133.694,208.006,137.051,212.148,137.051z"/>
	<path style="fill:#1C1918;" d="M299.792,162.885c21.229,0,38.5-17.271,38.5-38.501s-17.271-38.501-38.5-38.501
		c-21.229,0-38.501,17.271-38.501,38.501S278.562,162.885,299.792,162.885z M299.792,100.883c12.958,0,23.5,10.543,23.5,23.501
		s-10.542,23.501-23.5,23.501c-12.958,0-23.501-10.543-23.501-23.501S286.833,100.883,299.792,100.883z"/>
	<path style="fill:#1C1918;" d="M299.792,137.051c4.142,0,7.5-3.357,7.5-7.5v-10.334c0-4.143-3.358-7.5-7.5-7.5s-7.5,3.357-7.5,7.5
		v10.334C292.292,133.694,295.65,137.051,299.792,137.051z"/>
	<path style="fill:#1C1918;" d="M362.06,242.748v-12.565c0-10.601-5.889-19.85-14.566-24.655
		c15.172-18.509,24.201-41.627,24.201-66.679c0-11.593-1.924-22.989-5.722-33.924c19.448-42.751,13.487-91.342-5.606-102.043
		c-16.448-9.219-49.99,4.45-74.916,30.013c-10.246-2.653-20.835-3.996-31.547-3.996c-10.711,0-21.301,1.343-31.547,3.996
		C197.43,7.332,163.892-6.339,147.44,2.883c-11.17,6.26-17.77,24.717-17.662,47.76c-3.522-0.961-7.225-1.474-11.047-1.474
		c-23.167,0-42.016,18.848-42.016,42.016v150.563c0,18.334,6.86,35.831,19.317,49.27c5.963,6.432,12.953,11.644,20.611,15.499
		c-1.381,7.926-2.092,16.006-2.092,24.103V432.47c0,20.678,16.822,37.5,37.5,37.5h203.703c20.678,0,37.5-16.822,37.5-37.5V330.618
		C393.255,298.606,382.195,267.515,362.06,242.748z M378.255,432.47c0,12.406-10.093,22.5-22.5,22.5H152.051
		c-12.407,0-22.5-10.094-22.5-22.5V330.618c0-6.278,0.481-12.543,1.411-18.714c4.021,1.042,8.148,1.757,12.349,2.095
		c0.206,0.017,0.409,0.024,0.611,0.024c3.869,0,7.151-2.974,7.467-6.897c0.333-4.129-2.745-7.746-6.873-8.078
		c-29.608-2.386-52.801-27.555-52.801-57.301V110.19h27.016c4.142,0,7.5-3.357,7.5-7.5s-3.358-7.5-7.5-7.5H91.716v-4.005
		c0-14.896,12.119-27.016,27.016-27.016c14.896,0,27.015,12.119,27.015,27.016l0,88.598c0,1.749,0.312,3.139,0.807,4.242
		l-0.059,0.029c4.882,10.095,11.298,19.265,18.907,27.332c22.035,23.362,54.14,37.412,88.501,37.412
		c32.089,0,61.217-12.045,82.483-31.538c6.072,1.169,10.674,6.515,10.674,12.923v31.783c0,7.261-5.907,13.167-13.167,13.167H173.914
		c-7.261,0-13.167-5.906-13.167-13.167v-31.739c0-3.673-2.642-6.723-6.128-7.369c-0.446-0.083-0.903-0.131-1.372-0.131
		c-4.142,0-7.5,3.357-7.5,7.5v31.739c0,15.531,12.636,28.167,28.167,28.167h47.092c-6.698,7.677-10.77,17.702-10.77,28.667
		c0,24.078,19.589,43.668,43.667,43.668s43.667-19.59,43.667-43.668c0-10.965-4.071-20.99-10.77-28.667h39.592V318.8
		c0,39.972-32.519,72.49-72.489,72.49c-39.971,0-72.49-32.519-72.49-72.49v-6.167c0-4.142-3.357-7.499-7.498-7.5
		c-4.144,0-7.502,3.357-7.502,7.5v6.167c0,48.242,39.248,87.49,87.49,87.49c48.242,0,87.489-39.248,87.489-87.49v-29.689
		c9.971-2.758,17.735-10.87,19.992-21.036c10.974,18.871,16.87,40.461,16.87,62.543V432.47z M154.774,15.968
		c7.492-4.204,35.841,4.155,59.676,30.41c1.941,2.139,4.939,2.969,7.706,2.144c10.236-3.067,20.917-4.623,31.747-4.623
		c10.831,0,21.512,1.556,31.747,4.623c2.767,0.825,5.764-0.004,7.707-2.144c23.834-26.254,52.184-34.611,59.677-30.41
		c8.955,5.018,17.908,44.468-1.922,85.317c-0.905,1.864-0.998,4.019-0.258,5.954c3.876,10.14,5.842,20.775,5.842,31.609
		c0,52.355-46.112,94.949-102.792,94.949c-39.911,0-76.278-21.44-93.156-54.764c0-12.506,0-87.85,0-87.85
		c0-13.186-6.106-24.974-15.639-32.682C143.344,35.249,149.411,18.973,154.774,15.968z M282.57,318.8
		c0,13.213-8.987,24.36-21.167,27.666V318.8c0-4.143-3.358-7.5-7.5-7.5c-4.142,0-7.5,3.357-7.5,7.5v27.666
		c-12.18-3.306-21.167-14.453-21.167-27.666c0-15.807,12.86-28.667,28.667-28.667S282.57,302.993,282.57,318.8z"/>
	<path style="fill:#1C1918;" d="M359.215,425.716c-1.468-0.758-3.071-0.984-4.587-0.746l-40.727,0.012
		c-4.142,0.001-7.499,3.36-7.498,7.502s3.358,7.498,7.5,7.498c0.002,0,41.841-0.012,41.841-0.012
		c3.157-0.001,5.886-1.96,6.983-4.766C364.176,431.648,362.694,427.51,359.215,425.716z"/>
	<path style="fill:#1C1918;" d="M193.903,424.982c-0.002,0-41.197,0.012-41.197,0.012c-0.999-0.086-2.022,0.021-2.987,0.336
		c-3.937,1.288-6.083,5.524-4.795,9.461c0.718,2.192,2.349,3.83,4.334,4.628c0.912,0.379,1.891,0.575,2.881,0.575
		c0.002,0,41.766-0.012,41.766-0.012c4.142-0.001,7.499-3.36,7.498-7.502S198.045,424.982,193.903,424.982z"/>
</g>
</svg>